<svg id="Layer_1" data-name="Layer 1" xmlns="http://www.w3.org/2000/svg" width="500" height="102.78" viewBox="0 0 500 102.78">
  <path d="M32,97.71A4.89,4.89,0,0,1,29.47,97a4.94,4.94,0,0,1-1.76-6.76L59,37.1a4.94,4.94,0,1,1,8.51,5L36.22,95.28A4.93,4.93,0,0,1,32,97.71Z" style="fill: #fe5607"/>
  <path d="M73.85,26.46a4.89,4.89,0,0,1-2.49-.68A4.94,4.94,0,0,1,69.6,19L77.45,5.68a4.94,4.94,0,1,1,8.51,5L78.11,24A4.92,4.92,0,0,1,73.85,26.46Z" style="fill: #ff2000"/>
  <path d="M56.43,98.06a4.89,4.89,0,0,1-2.49-.68,4.94,4.94,0,0,1-1.76-6.76l7.89-13.41a4.94,4.94,0,0,1,8.51,5L60.69,95.63A4.93,4.93,0,0,1,56.43,98.06Z" style="fill: #ff2000"/>
  <path d="M81,98.28a4.89,4.89,0,0,1-2.49-.68,5,5,0,0,1-1.76-6.76l25.1-42.71a4.94,4.94,0,1,1,8.51,5L85.24,95.84A4.92,4.92,0,0,1,81,98.28Z" style="fill: #ff2000"/>
  <path d="M7.63,55.15a4.93,4.93,0,0,1-4.25-7.44L15.56,27a4.94,4.94,0,0,1,8.52,5L11.89,52.72A4.94,4.94,0,0,1,7.63,55.15Z" style="fill: #fe5607"/>
  <path d="M30.39,16.45A4.93,4.93,0,0,1,26.14,9l2.27-3.86a4.94,4.94,0,1,1,8.51,5L34.65,14A4.93,4.93,0,0,1,30.39,16.45Z" style="fill: #ff2000"/>
  <path d="M19.76,76.5a4.93,4.93,0,0,1-4.25-7.44l7.88-13.41a4.94,4.94,0,0,1,8.51,5L24,74.06A4.93,4.93,0,0,1,19.76,76.5Z" style="fill: #ff2000"/>
  <path d="M38.31,44.94a4.89,4.89,0,0,1-2.49-.68,5,5,0,0,1-1.76-6.76L52.94,5.39a4.94,4.94,0,0,1,8.51,5L42.57,42.5A4.92,4.92,0,0,1,38.31,44.94Z" style="fill: #fe5607"/>
  <path d="M74.89,66.44A4.93,4.93,0,0,1,70.64,59L89.51,26.9a4.94,4.94,0,1,1,8.51,5L79.15,64A4.93,4.93,0,0,1,74.89,66.44Z" style="fill: #fe5607"/>
  <g>
    <path d="M195,77.34C195,89.88,184.66,98,169,98H141.92c-3.24,0-5.12-1.78-5.12-5V29.9c0-3.24,1.88-5,5.12-5h24c14.83,0,25.7,7.53,25.7,20.07,0,6.06-3.24,12.32-11.7,15.15A17.23,17.23,0,0,1,195,77.34ZM153.42,38.05V55.81h8.77c9.41,0,13.28-4.49,13.28-9.19,0-5.44-4.6-8.57-10.77-8.57Zm25.28,38c0-4.8-4.07-9.51-13.79-9.51H153.42V84.65h14.94C174.94,84.65,178.7,80.89,178.7,76.08Z" style="fill: #fff"/>
    <path d="M258.22,29.9v4c0,3.24-1.88,5-5.12,5H236.17V93c0,3.24-1.77,5-5,5h-6.27c-3.24,0-5-1.78-5-5V38.88H203.15c-3.24,0-5-1.77-5-5v-4c0-3.24,1.77-5,5-5H253.1C256.34,24.88,258.22,26.66,258.22,29.9Z" style="fill: #fff"/>
    <path d="M269.4,93V29.9c0-3.24,1.88-5,5.12-5H281c3.24,0,5,1.78,5,5V93c0,3.24-1.77,5-5,5h-6.48C271.28,98,269.4,96.25,269.4,93Z" style="fill: #fff"/>
    <path d="M301.37,92.7c-1.78-1.26-1.88-2.93-.52-4.6l2-2.19c1.26-1.57,2.93-1.68,4.6-.53,5.43,3.35,9.82,4.18,16.72,4.18,12.64,0,18.7-8.46,18.7-15.57,0-8.35-7.1-14.31-16.19-14.31a19.51,19.51,0,0,0-7.84,1.67c-1.88.94-3.34.94-4.6-.73l-1.15-1.36c-1.25-1.57-1.25-3,.32-4.6L334.7,34H305.13a3,3,0,0,1-3.24-3.34V28.12a2.92,2.92,0,0,1,3.24-3.24h42.74a2.92,2.92,0,0,1,3.24,3.24v1.05a5.22,5.22,0,0,1-1.78,4.07L329.17,51.63a20.76,20.76,0,0,1,4.49.42c10.55,1.67,20,9.3,20,21.84,0,14.11-10.66,25.29-29.37,25.29C314,99.18,306.39,96.36,301.37,92.7Z" style="fill: #fff"/>
    <path d="M365.42,63.13c0-21.84,11-39.4,31.24-39.4a30,30,0,0,1,17.87,5.54c2,1.57,1.78,3.66,0,5.43L413,36.06c-1.68,1.57-3.24,1.47-5.34.21a20.45,20.45,0,0,0-10.76-2.92c-11.8,0-20.58,10.45-20.58,27.16,5.33-7.83,13-10.24,19.95-10.24,13.59,0,25.71,9.62,25.71,24.46,0,14.21-10.87,24.45-26.65,24.45C376.6,99.18,365.42,84.65,365.42,63.13Zm45.77,11.49c0-9-7.42-14.94-16.41-14.94s-17.34,6.06-17.34,14.94,8.25,14.94,17.34,14.94S411.19,83.61,411.19,74.62Z" style="fill: #fff"/>
    <path d="M432.5,61.45c0-20.89,11.91-37.82,31.56-37.82s31.66,16.93,31.66,37.82-12,37.73-31.66,37.73S432.5,82.25,432.5,61.45Zm52.56,0c0-15.67-8-28.42-21-28.42s-20.79,12.75-20.79,28.42,7.83,28.32,20.79,28.32S485.06,77.13,485.06,61.45Z" style="fill: #fff"/>
  </g>
</svg>
